<svg width="321.045" height="65.674" viewBox="0 0 321.045 65.674" xmlns="http://www.w3.org/2000/svg"><g id="svgGroup" stroke-linecap="round" fill-rule="evenodd" font-size="9pt" stroke="#570100" stroke-width="0.25mm" fill="#570100" style="stroke:#570100;stroke-width:0.25mm;fill:#570100"><path d="M 52.49 5.859 L 60.498 5.859 L 60.498 18.457 Q 60.449 18.506 60.254 18.75 Q 59.033 19.824 58.398 20.361 L 58.398 23.975 Q 61.182 22.998 64.111 21.777 Q 70.654 19.043 78.516 18.896 Q 82.031 18.799 84.058 19.727 Q 86.084 20.654 88.232 23.389 L 88.232 27.881 Q 83.984 24.658 77.002 24.658 Q 65.479 24.658 57.715 32.422 Q 53.711 36.426 53.711 40.479 Q 53.711 44.092 56.25 47.021 Q 61.475 53.076 71.094 53.076 Q 78.076 53.076 83.35 50.586 Q 85.01 49.805 87.598 48.291 Q 88.232 48.73 88.232 50.293 Q 94.971 53.076 95.996 53.467 L 95.996 34.668 Q 95.996 22.217 93.896 18.115 Q 90.771 11.963 79.785 11.963 Q 77.148 11.963 74.463 12.451 Q 67.188 13.77 67.188 14.014 Q 67.236 14.063 67.627 14.063 Q 67.48 14.063 67.285 13.867 Q 67.09 13.672 66.895 13.672 L 66.895 5.859 L 97.998 5.859 L 99.414 5.859 L 108.008 5.859 L 108.008 18.457 Q 107.959 18.506 107.764 18.75 Q 106.543 19.824 105.908 20.361 L 105.908 23.975 Q 108.691 22.998 111.621 21.777 Q 118.164 19.043 126.025 18.896 Q 129.541 18.799 131.567 19.727 Q 133.594 20.654 135.742 23.389 L 135.742 27.881 Q 131.494 24.658 124.512 24.658 Q 112.988 24.658 105.225 32.422 Q 101.221 36.426 101.221 40.479 Q 101.221 44.092 103.76 47.021 Q 108.984 53.076 118.604 53.076 Q 125.586 53.076 130.859 50.586 Q 132.52 49.805 135.107 48.291 Q 135.742 48.73 135.742 50.293 Q 142.48 53.076 143.506 53.467 L 143.506 34.668 Q 143.506 22.217 141.406 18.115 Q 138.281 11.963 127.295 11.963 Q 124.658 11.963 121.973 12.451 Q 114.697 13.77 114.697 14.014 Q 114.746 14.063 115.137 14.063 Q 114.99 14.063 114.795 13.867 Q 114.6 13.672 114.404 13.672 L 114.404 5.859 L 145.752 5.859 L 146.924 5.859 L 196.533 5.859 L 196.436 12.5 Q 194.043 12.842 191.699 13.818 Q 187.256 15.674 183.545 17.285 Q 183.154 17.188 180.713 15.723 Q 174.268 11.865 167.822 11.865 Q 162.793 11.865 158.057 14.16 Q 147.217 19.434 147.217 30.176 Q 147.217 38.672 156.934 46.094 Q 164.209 51.66 172.705 54.59 L 163.428 45.605 Q 157.129 39.502 157.129 32.666 Q 157.129 29.395 159.18 26.123 Q 163.867 18.701 172.314 18.701 Q 178.906 18.701 178.906 20.996 Q 178.857 21.242 177.686 23.096 Q 174.512 28.174 174.512 32.275 L 184.521 36.377 Q 188.086 18.604 203.906 17.969 Q 206.494 17.871 209.131 18.799 Q 214.551 20.703 214.551 25.586 Q 214.551 30.518 210.547 34.912 Q 206.836 39.014 201.514 41.846 Q 195.898 44.873 190.723 45.166 Q 199.121 53.76 200.146 53.76 Q 201.172 53.76 205.029 51.025 Q 208.154 48.828 209.668 47.461 Q 217.725 40.234 217.725 30.176 Q 217.725 23.193 214.697 19.092 Q 211.768 15.137 205.127 12.695 L 205.029 5.859 L 219.727 5.859 L 221.143 5.859 L 258.594 5.859 L 258.594 14.16 Q 250 11.865 245.313 11.865 Q 241.211 11.865 236.572 13.037 Q 225.244 15.918 225.293 24.17 Q 225.293 28.223 227.734 31.738 Q 232.764 39.063 240.527 39.063 Q 241.846 39.063 247.656 37.5 Q 257.52 34.863 259.326 34.863 Q 265.186 34.863 265.186 38.574 Q 265.186 41.064 262.012 42.773 Q 255.518 46.289 248.096 46.289 Q 244.385 46.289 238.647 43.481 Q 232.91 40.674 231.104 40.674 Q 226.221 40.674 226.221 44.775 Q 226.221 48.096 229.297 50 Q 234.18 53.027 243.213 53.271 Q 244.678 53.32 246.875 57.178 Q 249.463 61.67 250.879 63.086 Q 253.516 65.674 257.324 65.674 Q 262.012 65.674 263.525 64.355 L 258.594 56.299 Q 257.422 56.592 256.396 56.592 Q 253.223 56.592 249.707 53.076 Q 253.369 52.832 257.422 50.977 Q 267.188 46.533 267.188 38.77 Q 267.188 35.4 265.186 32.91 Q 261.035 27.686 252.588 27.686 Q 248.242 27.686 246.533 28.271 Q 242.48 29.688 239.893 30.615 Q 235.889 32.08 233.398 32.08 Q 229.297 32.08 229.297 28.174 Q 229.297 25.244 232.715 23.438 Q 238.77 20.264 247.705 20.264 Q 251.416 20.264 256.494 21.436 Q 261.914 22.656 264.795 24.365 L 264.795 5.859 L 268.945 5.859 L 270.117 5.859 L 300.244 5.859 L 300.244 13.77 Q 291.602 13.77 284.668 15.771 Q 275.537 18.408 275.537 24.463 Q 275.537 27.246 278.418 28.906 L 281.641 30.762 Q 277.246 32.861 275.342 34.473 Q 272.217 37.109 272.217 40.674 Q 272.217 44.336 276.66 47.168 Q 285.791 52.979 298.34 52.979 Q 309.814 52.979 318.213 47.656 L 318.213 35.303 Q 308.398 49.365 292.529 49.365 Q 288.867 49.365 285.693 47.949 Q 281.641 46.143 281.641 42.969 Q 281.641 37.256 293.311 36.23 Q 294.971 36.084 301.611 35.889 L 301.611 31.396 L 298.682 31.543 Q 295.752 31.689 295.508 31.689 Q 284.326 31.689 284.424 27.783 Q 284.473 24.072 290.137 22.07 Q 294.385 20.557 298.926 20.557 Q 305.225 20.557 311.035 22.559 L 311.035 16.797 Q 310.01 16.016 307.715 15.479 L 307.715 5.859 L 321.045 5.859 L 321.045 0 L 270.117 0 L 268.945 0 L 221.143 0 L 219.727 0 L 146.924 0 L 145.752 0 L 99.414 0 L 97.998 0 L 52.49 0 L 50.488 0 L 0 0 L 0 5.859 L 50.488 5.859 L 52.49 5.859 Z M 12.305 40.381 L 12.305 54.59 L 4.297 50.391 L 4.297 13.672 L 12.695 13.672 L 12.695 19.482 L 17.041 16.211 Q 22.803 11.865 29.199 11.865 Q 37.891 11.865 43.604 18.604 Q 48.975 24.951 48.975 33.789 Q 48.975 44.873 39.6 55.078 L 30.176 49.17 Q 34.57 44.824 37.646 41.162 Q 41.992 35.986 41.992 27.295 Q 41.992 15.576 30.908 15.576 Q 22.705 15.576 17.188 24.17 Q 12.305 31.787 12.305 40.381 Z M 88.232 36.768 Q 88.232 38.867 81.689 42.822 Q 74.17 47.363 65.088 47.363 Q 58.057 47.363 57.031 43.799 Q 57.031 41.895 59.521 38.916 Q 65.723 31.494 76.025 31.494 Q 78.857 31.494 83.105 32.91 Q 88.232 34.619 88.232 36.768 Z M 135.742 36.768 Q 135.742 38.867 129.199 42.822 Q 121.68 47.363 112.598 47.363 Q 105.566 47.363 104.541 43.799 Q 104.541 41.895 107.031 38.916 Q 113.232 31.494 123.535 31.494 Q 126.367 31.494 130.615 32.91 Q 135.742 34.619 135.742 36.768 Z" vector-effect="non-scaling-stroke"/></g></svg>